<svg xmlns="http://www.w3.org/2000/svg" viewBox="0 0 140 120" role="img" aria-label="Swan">
  <rect width="140" height="120" rx="28" fill="#f4f3ef"/>
  <circle cx="70" cy="60" r="44" fill="#2d6a6d"/>
  <path d="M38 78c12-10 28-14 42-12 12 2 22 8 26 16 2 3 1 7-3 9-7 4-16 6-28 6-13 0-23-3-31-7-4-2-4-7-6-12z" fill="#ffffff"/>
  <path d="M48 76c8-6 18-8 28-4 6 2 10 6 12 11" fill="none" stroke="#2d6a6d" stroke-width="2.6" stroke-linecap="round"/>
  <path d="M52 82c7 4 14 6 22 5" fill="none" stroke="#cfe3e2" stroke-width="2" stroke-linecap="round"/>
  <path d="M76 64c-12-10-14-28-2-38 8-7 20-5 24 5 3 8-2 16-10 17" fill="none" stroke="#ffffff" stroke-width="5" stroke-linecap="round" stroke-linejoin="round"/>
  <circle cx="93" cy="38" r="3.4" fill="#ffffff"/>
  <path d="M96 38l10 4-10 4z" fill="#f2c4b3"/>
</svg>
